<svg width="80" height="80" viewBox="0 0 80 80" fill="none" xmlns="http://www.w3.org/2000/svg">
  <!-- Neural network nodes -->
  <circle cx="20" cy="20" r="4" fill="#ffffff"/>
  <circle cx="40" cy="20" r="4" fill="#ffffff"/>
  <circle cx="60" cy="20" r="4" fill="#ffffff"/>
  
  <circle cx="15" cy="40" r="4" fill="#ffffff"/>
  <circle cx="35" cy="40" r="4" fill="#ffffff"/>
  <circle cx="55" cy="40" r="4" fill="#ffffff"/>
  <circle cx="75" cy="40" r="4" fill="#ffffff"/>
  
  <circle cx="20" cy="60" r="4" fill="#ffffff"/>
  <circle cx="40" cy="60" r="4" fill="#ffffff"/>
  <circle cx="60" cy="60" r="4" fill="#ffffff"/>
  
  <!-- Neural connections -->
  <line x1="20" y1="20" x2="15" y2="40" stroke="#00acc1" stroke-width="1.5"/>
  <line x1="20" y1="20" x2="35" y2="40" stroke="#00acc1" stroke-width="1.5"/>
  <line x1="40" y1="20" x2="35" y2="40" stroke="#00acc1" stroke-width="1.5"/>
  <line x1="40" y1="20" x2="55" y2="40" stroke="#00acc1" stroke-width="1.5"/>
  <line x1="60" y1="20" x2="55" y2="40" stroke="#00acc1" stroke-width="1.5"/>
  <line x1="60" y1="20" x2="75" y2="40" stroke="#00acc1" stroke-width="1.5"/>
  
  <line x1="15" y1="40" x2="20" y2="60" stroke="#00acc1" stroke-width="1.5"/>
  <line x1="15" y1="40" x2="40" y2="60" stroke="#00acc1" stroke-width="1.5"/>
  <line x1="35" y1="40" x2="20" y2="60" stroke="#00acc1" stroke-width="1.5"/>
  <line x1="35" y1="40" x2="40" y2="60" stroke="#00acc1" stroke-width="1.5"/>
  <line x1="35" y1="40" x2="60" y2="60" stroke="#00acc1" stroke-width="1.5"/>
  <line x1="55" y1="40" x2="40" y2="60" stroke="#00acc1" stroke-width="1.5"/>
  <line x1="55" y1="40" x2="60" y2="60" stroke="#00acc1" stroke-width="1.5"/>
  <line x1="75" y1="40" x2="60" y2="60" stroke="#00acc1" stroke-width="1.5"/>
  
  <!-- Central processing -->
  <circle cx="40" cy="40" r="8" fill="url(#gradient)" stroke="#ffffff" stroke-width="2"/>
  <circle cx="40" cy="40" r="4" fill="#ffffff"/>
  
  <!-- Data flow indicators -->
  <path d="M10,15 L15,15 M70,15 L75,15 M10,65 L15,65 M70,65 L75,65" stroke="#ff9800" stroke-width="2" stroke-linecap="round"/>
  
  <defs>
    <radialGradient id="gradient" cx="50%" cy="50%" r="50%">
      <stop offset="0%" style="stop-color:#0d47a1;stop-opacity:1" />
      <stop offset="100%" style="stop-color:#00acc1;stop-opacity:1" />
    </radialGradient>
  </defs>
</svg> 