<svg width="400" height="300" viewBox="0 0 400 300" fill="none" xmlns="http://www.w3.org/2000/svg">
  <!-- Background circles -->
  <circle cx="200" cy="150" r="120" fill="url(#gradient1)" opacity="0.1"/>
  <circle cx="200" cy="150" r="80" fill="url(#gradient2)" opacity="0.15"/>
  
  <!-- Main AI brain icon -->
  <g transform="translate(200, 150)">
    <!-- Brain outline -->
    <path d="M-40,-20 Q-50,-40 -40,-60 Q-30,-80 -10,-80 Q10,-80 20,-60 Q30,-40 20,-20 Q10,0 0,10 Q-10,0 -20,-10 Q-30,-20 -40,-20 Z" 
          fill="none" stroke="#0d47a1" stroke-width="3"/>
    
    <!-- Circuit lines -->
    <path d="M-30,-50 L-20,-50 M-20,-40 L-10,-40 M-10,-30 L0,-30 M0,-20 L10,-20 M10,-10 L20,-10" 
          stroke="#00acc1" stroke-width="2" stroke-linecap="round"/>
    
    <!-- Data flow arrows -->
    <path d="M-35,-35 L-25,-35 M-25,-25 L-15,-25 M-15,-15 L-5,-15 M-5,-5 L5,-5 M5,5 L15,5 M15,15 L25,15" 
          stroke="#ff9800" stroke-width="2" stroke-linecap="round"/>
    
    <!-- Central processing unit -->
    <circle cx="0" cy="0" r="15" fill="url(#gradient3)" stroke="#0d47a1" stroke-width="2"/>
    <circle cx="0" cy="0" r="8" fill="#ffffff"/>
    
    <!-- Connection nodes -->
    <circle cx="-30" cy="-50" r="3" fill="#00acc1"/>
    <circle cx="30" cy="-50" r="3" fill="#00acc1"/>
    <circle cx="-30" cy="50" r="3" fill="#00acc1"/>
    <circle cx="30" cy="50" r="3" fill="#00acc1"/>
  </g>
  
  <!-- Floating elements -->
  <g opacity="0.7">
    <!-- Document icon -->
    <rect x="50" y="50" width="30" height="40" rx="3" fill="#0d47a1" opacity="0.8"/>
    <line x1="60" y1="65" x2="70" y2="65" stroke="white" stroke-width="2"/>
    <line x1="60" y1="70" x2="70" y2="70" stroke="white" stroke-width="2"/>
    <line x1="60" y1="75" x2="65" y2="75" stroke="white" stroke-width="2"/>
    
    <!-- Chart icon -->
    <rect x="320" y="80" width="35" height="25" rx="2" fill="#00acc1" opacity="0.8"/>
    <line x1="325" y1="95" x2="330" y2="90" stroke="white" stroke-width="2"/>
    <line x1="330" y1="90" x2="335" y2="95" stroke="white" stroke-width="2"/>
    <line x1="335" y1="95" x2="340" y2="85" stroke="white" stroke-width="2"/>
    <line x1="340" y1="85" x2="345" y2="95" stroke="white" stroke-width="2"/>
    
    <!-- Gear icon -->
    <circle cx="80" cy="220" r="20" fill="#ff9800" opacity="0.8"/>
    <circle cx="80" cy="220" r="12" fill="white"/>
    <circle cx="80" cy="220" r="4" fill="#ff9800"/>
    <path d="M80,200 L80,195 M80,245 L80,240 M60,220 L55,220 M105,220 L100,220 M65,205 L62,202 M98,238 L95,235 M65,235 L62,238 M98,202 L95,205" 
          stroke="white" stroke-width="2" stroke-linecap="round"/>
  </g>
  
  <!-- Gradients -->
  <defs>
    <linearGradient id="gradient1" x1="0%" y1="0%" x2="100%" y2="100%">
      <stop offset="0%" style="stop-color:#0d47a1;stop-opacity:1" />
      <stop offset="100%" style="stop-color:#00acc1;stop-opacity:1" />
    </linearGradient>
    <linearGradient id="gradient2" x1="0%" y1="0%" x2="100%" y2="100%">
      <stop offset="0%" style="stop-color:#00acc1;stop-opacity:1" />
      <stop offset="100%" style="stop-color:#ff9800;stop-opacity:1" />
    </linearGradient>
    <radialGradient id="gradient3" cx="50%" cy="50%" r="50%">
      <stop offset="0%" style="stop-color:#0d47a1;stop-opacity:1" />
      <stop offset="100%" style="stop-color:#00acc1;stop-opacity:1" />
    </radialGradient>
  </defs>
</svg> 